<svg width="1218" height="2076" viewBox="0 0 1218 2076" fill="none" xmlns="http://www.w3.org/2000/svg">
<path d="M308.705 2.25069C301.664 -2.11394 292.417 0.0559003 288.053 7.09715C283.688 14.1384 285.858 23.3847 292.899 27.7493L308.705 2.25069ZM3.6713 1476.83C-1.75855 1483.09 -1.08828 1492.56 5.16839 1497.99L107.127 1586.48C113.383 1591.91 122.857 1591.24 128.287 1584.98C133.717 1578.73 133.047 1569.25 126.79 1563.82L36.1603 1485.17L114.813 1394.54C120.243 1388.28 119.573 1378.81 113.316 1373.38C107.059 1367.95 97.5856 1368.62 92.1558 1374.88L3.6713 1476.83ZM977.029 2014.59C1004.31 2051.84 1034.44 2072.33 1064.43 2075.56C1095.13 2078.86 1121.55 2063.66 1139.49 2038.63C1174.78 1989.38 1180.31 1899.78 1134.05 1807.54C1040.58 1621.2 736.719 1420.57 13.9414 1471.7L16.0586 1501.63C735.138 1450.75 1022.17 1651.41 1107.23 1820.99C1150.23 1906.71 1141.93 1983.72 1115.1 2021.15C1101.99 2039.46 1085.28 2047.62 1067.64 2045.73C1049.29 2043.76 1025.87 2030.49 1001.23 1996.86L977.029 2014.59ZM292.899 27.7493C706.633 284.208 941.913 517.931 1066.31 727.776C1190.41 937.106 1204.67 1123.49 1174.62 1287.06C1144.4 1451.53 1069.53 1592.89 1013.71 1713.4C986.047 1773.13 962.76 1828.44 953.258 1878.15C943.669 1928.33 947.781 1974.66 977.029 2014.59L1001.23 1996.86C978.561 1965.91 974.081 1929.01 982.724 1883.79C991.454 1838.11 1013.22 1785.84 1040.93 1726.01C1095.87 1607.4 1173.04 1461.68 1204.12 1292.48C1235.38 1122.38 1220.21 928.539 1092.12 712.477C964.339 496.93 724.682 260.1 308.705 2.25069L292.899 27.7493Z" fill="#1F1F1F"/>
</svg>
