<svg width="240" height="240" viewBox="0 0 240 240" fill="none" xmlns="http://www.w3.org/2000/svg">
<path d="M112.381 9.26182C112.039 4.30298 115.786 -0.0289621 120.757 0.00236966C135.451 0.0949955 150.03 2.88616 163.76 8.26326C177.49 13.6404 190.087 21.4921 200.936 31.403C204.605 34.7555 204.414 40.4796 200.796 43.8879V43.8879C197.178 47.2962 191.506 47.0922 187.793 43.7886C178.801 35.79 168.446 29.4296 157.196 25.0238C145.946 20.6179 134.025 18.2546 121.993 18.0195C117.023 17.9223 112.722 14.2207 112.381 9.26182V9.26182Z" fill="#1F1F1F"/>
<path d="M209.329 54.1115C213.329 51.161 218.996 51.9957 221.638 56.2056C230.076 69.6487 235.779 84.659 238.384 100.376C241.481 119.058 240.113 138.208 234.391 156.26C228.668 174.312 218.755 190.754 205.461 204.24C194.277 215.586 180.968 224.57 166.327 230.697C161.742 232.616 156.629 230.034 155.059 225.318V225.318C153.49 220.602 156.06 215.542 160.62 213.563C172.576 208.372 183.453 200.926 192.642 191.604C203.942 180.14 212.368 166.165 217.232 150.821C222.096 135.477 223.259 119.199 220.627 103.319C218.486 90.4058 213.885 78.0534 207.102 66.9229C204.516 62.6783 205.329 57.062 209.329 54.1115V54.1115Z" fill="#FFCC3F"/>
<path d="M146.365 227.823C147.546 232.652 144.591 237.558 139.688 238.374C120.942 241.492 101.678 240.119 83.4934 234.312C62.4443 227.59 43.66 215.186 29.211 198.469C14.762 181.751 5.20942 161.369 1.60621 139.568C-1.50661 120.734 -0.0748134 101.474 5.72491 83.3774C7.2419 78.644 12.5247 76.4313 17.1312 78.2987V78.2987C21.7376 80.166 23.9169 85.4059 22.4627 90.159C17.8716 105.165 16.7931 121.07 19.3653 136.633C22.428 155.163 30.5477 172.489 42.8293 186.699C55.111 200.908 71.0777 211.451 88.9694 217.165C103.995 221.964 119.889 223.2 135.402 220.83C140.316 220.08 145.185 222.995 146.365 227.823V227.823Z" fill="#F2695F"/>
<path d="M20.9176 69.9632C16.4807 67.7225 14.6715 62.2884 17.2383 58.0319C25.4345 44.4402 36.2621 32.5828 49.117 23.1723C61.9718 13.7619 76.5468 7.02327 91.9797 3.31723C96.8129 2.1566 101.446 5.52323 102.242 10.4298V10.4298C103.037 15.3363 99.6896 19.919 94.8722 21.1435C82.2397 24.3545 70.3115 29.9645 59.7494 37.6965C49.1874 45.4285 40.2353 55.104 33.3574 66.1757C30.7344 70.3979 25.3545 72.2038 20.9176 69.9632V69.9632Z" fill="#DDF446"/>
<path d="M74.2503 173.245C74.4945 174.323 75.5657 174.998 76.643 174.754C77.7202 174.51 78.3955 173.438 78.1514 172.361L74.2503 173.245ZM78.0421 163.495L79.6068 162.25L78.0421 163.495ZM96.2871 146.569L94.4241 145.842L96.2871 146.569ZM114.699 137.602L113.652 135.898L114.699 137.602ZM129.764 150.464L129.763 152.464L129.764 150.464ZM147.577 74.77C146.898 73.899 145.641 73.7436 144.77 74.4229L130.576 85.4927C129.705 86.172 129.55 87.4288 130.229 88.2998C130.909 89.1708 132.165 89.3262 133.036 88.6469L145.653 78.807L155.493 91.4236C156.172 92.2946 157.429 92.45 158.3 91.7707C159.171 91.0914 159.326 89.8347 158.647 88.9637L147.577 74.77ZM78.1514 172.361C77.5403 169.665 76.9491 166.162 77.0034 164.089C77.0168 163.578 77.0682 163.283 77.107 163.156C77.17 162.95 77.0885 163.453 76.4572 163.704C75.7629 163.981 75.3265 163.601 75.5145 163.73C75.6562 163.827 75.9726 164.107 76.4773 164.741L79.6068 162.25C79.0068 161.496 78.3988 160.857 77.7733 160.429C77.1941 160.032 76.1479 159.522 74.9779 159.988C73.871 160.429 73.448 161.441 73.2809 161.99C73.0895 162.618 73.022 163.324 73.0048 163.984C72.9363 166.599 73.6339 170.526 74.2503 173.245L78.1514 172.361ZM76.4773 164.741C79.1698 168.123 81.8679 171.621 84.2832 173.72C85.4762 174.757 86.8727 175.705 88.3969 175.943C89.2081 176.069 90.0509 175.993 90.8635 175.636C91.6621 175.286 92.3153 174.715 92.8472 174.027L89.684 171.579C89.4627 171.865 89.3103 171.95 89.2544 171.974C89.2124 171.993 89.1515 172.012 89.0134 171.991C88.6388 171.932 87.9533 171.611 86.9075 170.701C84.8452 168.909 82.438 165.806 79.6068 162.25L76.4773 164.741ZM92.8472 174.027C93.9294 172.629 94.3639 170.876 94.5974 169.137C94.8307 167.398 94.899 165.314 95.02 163.162C95.267 158.77 95.7542 153.433 98.1502 147.297L94.4241 145.842C91.7985 152.567 91.2814 158.401 91.0263 162.937C90.8962 165.25 90.839 167.069 90.6329 168.605C90.427 170.139 90.1083 171.031 89.684 171.579L92.8472 174.027ZM98.1502 147.297C98.4005 146.655 98.6127 146.295 98.7529 146.114C98.8955 145.93 98.8606 146.061 98.5969 146.129C97.935 146.302 97.829 145.731 98.4489 146.509C98.942 147.127 99.5232 148.169 100.171 149.603C100.805 151.008 101.45 152.669 102.101 154.445C103.373 157.919 104.703 161.953 105.886 164.869C106.477 166.323 107.1 167.68 107.748 168.637C108.061 169.098 108.495 169.644 109.077 170.018C109.752 170.451 110.764 170.712 111.786 170.17L109.913 166.636C110.496 166.327 111.046 166.529 111.237 166.652C111.337 166.716 111.268 166.701 111.059 166.393C110.665 165.811 110.172 164.792 109.593 163.364C108.436 160.516 107.209 156.761 105.857 153.069C105.195 151.262 104.51 149.494 103.816 147.957C103.136 146.449 102.39 145.036 101.577 144.015C100.89 143.154 99.4972 141.761 97.5872 142.259C96.6995 142.49 96.0502 143.071 95.5903 143.665C95.1282 144.262 94.7499 145.007 94.4241 145.842L98.1502 147.297ZM111.786 170.17C112.466 169.81 112.897 169.244 113.17 168.761C113.45 168.267 113.647 167.713 113.796 167.168C114.093 166.079 114.27 164.734 114.386 163.299C114.618 160.416 114.628 156.757 114.649 153.204C114.67 149.595 114.702 146.087 114.959 143.338C115.088 141.959 115.266 140.866 115.493 140.089C115.755 139.19 115.952 139.18 115.747 139.306L113.652 135.898C112.485 136.616 111.949 137.954 111.653 138.968C111.321 140.105 111.114 141.491 110.977 142.965C110.7 145.922 110.67 149.617 110.649 153.18C110.628 156.798 110.616 160.28 110.399 162.977C110.29 164.332 110.136 165.386 109.937 166.116C109.837 166.481 109.746 166.69 109.689 166.792C109.626 166.904 109.672 166.763 109.913 166.636L111.786 170.17ZM115.747 139.306C115.76 139.298 115.764 139.297 115.761 139.298C115.759 139.298 115.757 139.299 115.755 139.299C115.753 139.3 115.752 139.3 115.752 139.3C115.753 139.3 115.755 139.3 115.76 139.3C115.765 139.3 115.773 139.3 115.785 139.301C115.808 139.303 115.845 139.309 115.898 139.324C116.14 139.391 116.542 139.594 117.112 140.054C118.254 140.977 119.548 142.498 120.951 144.28C122.286 145.976 123.739 147.937 125.029 149.403C125.681 150.145 126.368 150.851 127.062 151.386C127.7 151.878 128.642 152.463 129.763 152.464L129.765 148.464C130.007 148.464 129.953 148.564 129.504 148.218C129.112 147.916 128.622 147.432 128.032 146.761C126.838 145.403 125.549 143.654 124.094 141.806C122.706 140.043 121.162 138.184 119.626 136.943C118.227 135.812 115.934 134.495 113.652 135.898L115.747 139.306ZM129.763 152.464C132.093 152.465 133.803 150.787 135 148.982C136.25 147.097 137.327 144.508 138.277 141.535C140.187 135.561 141.742 127.52 143.018 119.119C145.565 102.359 147.085 83.5244 147.985 76.2454L144.015 75.7546C143.074 83.3661 141.609 101.767 139.064 118.518C137.794 126.872 136.277 134.656 134.467 140.317C133.558 143.161 132.614 145.342 131.666 146.772C130.665 148.282 130 148.464 129.765 148.464L129.763 152.464Z" fill="#1F1F1F"/>
</svg>
