<svg width="1396" height="1180" viewBox="0 0 1396 1180" fill="none" xmlns="http://www.w3.org/2000/svg">
<rect x="744.025" width="838.729" height="838.729" rx="100" transform="rotate(39.0173 744.025 0)" fill="#DDF446"/>
<path d="M251.996 504.196C286.765 461.286 349.737 454.686 392.647 489.455L625.734 678.322C668.644 713.091 675.243 776.063 640.474 818.973L451.607 1052.06C416.838 1094.97 353.866 1101.57 310.956 1066.8L77.8693 877.934C34.9592 843.164 28.3598 780.193 63.1292 737.282L251.996 504.196Z" fill="#1F1F1F"/>
<path d="M805.562 291C774.081 675.074 894.524 753.334 955.077 723.71C996.576 703.406 1090.41 495.835 859.589 496.687C674.931 497.37 658.007 587.556 682.794 703.228" stroke="#1F1F1F" stroke-width="20" stroke-linecap="round"/>
</svg>
