<svg width="672" height="435" viewBox="0 0 672 435" fill="none" xmlns="http://www.w3.org/2000/svg">
<g filter="url(#filter0_d_72_617)">
<rect x="30" y="30" width="642" height="405" rx="60" fill="#1F1F1F" shape-rendering="crispEdges"/>
<g clip-path="url(#clip0_72_617)">
<path d="M99.5 257.767V263.152Z" fill="white"/>
<path d="M99.5 257.767V263.152" stroke="white"/>
<path d="M101.5 256.603V260.852Z" fill="white"/>
<path d="M101.5 256.603V260.852" stroke="white"/>
<path d="M103.5 257.505V260.43Z" fill="white"/>
<path d="M103.5 257.505V260.43" stroke="white"/>
<path d="M105.5 257.193V261.696Z" fill="white"/>
<path d="M105.5 257.193V261.696" stroke="white"/>
<path d="M107.5 256.108V262.516Z" fill="white"/>
<path d="M107.5 256.108V262.516" stroke="white"/>
<path d="M109.5 262.158V266.06Z" fill="white"/>
<path d="M109.5 262.158V266.06" stroke="white"/>
<path d="M111.5 262.895V264.994Z" fill="white"/>
<path d="M111.5 262.895V264.994" stroke="white"/>
<path d="M113.5 262.471V265.948Z" fill="white"/>
<path d="M113.5 262.471V265.948" stroke="white"/>
<path d="M115.5 259.27V265.315Z" fill="white"/>
<path d="M115.5 259.27V265.315" stroke="white"/>
<path d="M117.5 256.318V259.111Z" fill="white"/>
<path d="M117.5 256.318V259.111" stroke="white"/>
<path d="M120.5 262.763V270.563Z" fill="white"/>
<path d="M120.5 262.763V270.563" stroke="white"/>
<path d="M122.5 266.122V270.311Z" fill="white"/>
<path d="M122.5 266.122V270.311" stroke="white"/>
<path d="M124.5 259.273V266.678Z" fill="white"/>
<path d="M124.5 259.273V266.678" stroke="white"/>
<path d="M126.5 258.556V261.281Z" fill="white"/>
<path d="M126.5 258.556V261.281" stroke="white"/>
<path d="M128.5 256.016V259.68Z" fill="white"/>
<path d="M128.5 256.016V259.68" stroke="white"/>
<path d="M130.5 257.043V260.005Z" fill="white"/>
<path d="M130.5 257.043V260.005" stroke="white"/>
<path d="M132.5 256.79V261.456Z" fill="white"/>
<path d="M132.5 256.79V261.456" stroke="white"/>
<path d="M134.5 258.443V261.249Z" fill="white"/>
<path d="M134.5 258.443V261.249" stroke="white"/>
<path d="M136.5 261.617V264.069Z" fill="white"/>
<path d="M136.5 261.617V264.069" stroke="white"/>
<path d="M138.5 261.537V265.185Z" fill="white"/>
<path d="M138.5 261.537V265.185" stroke="white"/>
<path d="M140.5 266.827V269.28Z" fill="white"/>
<path d="M140.5 266.827V269.28" stroke="white"/>
<path d="M143.5 265.296V268.946Z" fill="white"/>
<path d="M143.5 265.296V268.946" stroke="white"/>
<path d="M145.5 263.848V267.014Z" fill="white"/>
<path d="M145.5 263.848V267.014" stroke="white"/>
<path d="M147.5 263.277V268.662Z" fill="white"/>
<path d="M147.5 263.277V268.662" stroke="white"/>
<path d="M149.5 268.955V272.529Z" fill="white"/>
<path d="M149.5 268.955V272.529" stroke="white"/>
<path d="M151.5 269.445V272.708Z" fill="white"/>
<path d="M151.5 269.445V272.708" stroke="white"/>
<path d="M153.5 268.369V271.068Z" fill="white"/>
<path d="M153.5 268.369V271.068" stroke="white"/>
<path d="M155.5 267.234V268.511Z" fill="white"/>
<path d="M155.5 267.234V268.511" stroke="white"/>
<path d="M157.5 266.517V268.736Z" fill="white"/>
<path d="M157.5 266.517V268.736" stroke="white"/>
<path d="M159.5 263.932V266.47Z" fill="white"/>
<path d="M159.5 263.932V266.47" stroke="white"/>
<path d="M161.5 264.32V265.859Z" fill="white"/>
<path d="M161.5 264.32V265.859" stroke="white"/>
<path d="M163.5 263.066V264.231Z" fill="white"/>
<path d="M163.5 263.066V264.231" stroke="white"/>
<path d="M165.5 262.996V264.941Z" fill="white"/>
<path d="M165.5 262.996V264.941" stroke="white"/>
<path d="M168.5 260.971V265.564Z" fill="white"/>
<path d="M168.5 260.971V265.564" stroke="white"/>
<path d="M170.5 259.854V261.42Z" fill="white"/>
<path d="M170.5 259.854V261.42" stroke="white"/>
<path d="M172.5 259.284V261.062Z" fill="white"/>
<path d="M172.5 259.284V261.062" stroke="white"/>
<path d="M174.5 260.174V262.847Z" fill="white"/>
<path d="M174.5 260.174V262.847" stroke="white"/>
<path d="M176.5 261.626V263.311Z" fill="white"/>
<path d="M176.5 261.626V263.311" stroke="white"/>
<path d="M178.5 262.557V264.655Z" fill="white"/>
<path d="M178.5 262.557V264.655" stroke="white"/>
<path d="M180.5 262.543V264.055Z" fill="white"/>
<path d="M180.5 262.543V264.055" stroke="white"/>
<path d="M182.5 260.641V265.743Z" fill="white"/>
<path d="M182.5 260.641V265.743" stroke="white"/>
<path d="M184.5 260.537V262.069Z" fill="white"/>
<path d="M184.5 260.537V262.069" stroke="white"/>
<path d="M186.5 259.831V262.005Z" fill="white"/>
<path d="M186.5 259.831V262.005" stroke="white"/>
<path d="M188.5 258.198V260.977Z" fill="white"/>
<path d="M188.5 258.198V260.977" stroke="white"/>
<path d="M191.5 256.742V258.566Z" fill="white"/>
<path d="M191.5 256.742V258.566" stroke="white"/>
<path d="M193.5 254.033V257.403Z" fill="white"/>
<path d="M193.5 254.033V257.403" stroke="white"/>
<path d="M195.5 251.474V253.548Z" fill="white"/>
<path d="M195.5 251.474V253.548" stroke="white"/>
<path d="M197.5 248.042V251.487Z" fill="white"/>
<path d="M197.5 248.042V251.487" stroke="white"/>
<path d="M199.5 246.968V249.481Z" fill="white"/>
<path d="M199.5 246.968V249.481" stroke="white"/>
<path d="M201.5 245.491V248.429Z" fill="white"/>
<path d="M201.5 245.491V248.429" stroke="white"/>
<path d="M203.5 242.882V245.344Z" fill="white"/>
<path d="M203.5 242.882V245.344" stroke="white"/>
<path d="M205.5 241.593V246.967Z" fill="white"/>
<path d="M205.5 241.593V246.967" stroke="white"/>
<path d="M207.5 242.653V245.387Z" fill="white"/>
<path d="M207.5 242.653V245.387" stroke="white"/>
<path d="M209.5 241.992V246.299Z" fill="white"/>
<path d="M209.5 241.992V246.299" stroke="white"/>
<path d="M211.5 241.844V244.348Z" fill="white"/>
<path d="M211.5 241.844V244.348" stroke="white"/>
<path d="M213.5 237.856V241.838Z" fill="white"/>
<path d="M213.5 237.856V241.838" stroke="white"/>
<path d="M216.5 236.007V240.605Z" fill="white"/>
<path d="M216.5 236.007V240.605" stroke="white"/>
<path d="M218.5 236.87V240.363Z" fill="white"/>
<path d="M218.5 236.87V240.363" stroke="white"/>
<path d="M220.5 236.012V238.792Z" fill="white"/>
<path d="M220.5 236.012V238.792" stroke="white"/>
<path d="M222.5 234.661V238.03Z" fill="white"/>
<path d="M222.5 234.661V238.03" stroke="white"/>
<path d="M224.5 230.122V233.386Z" fill="white"/>
<path d="M224.5 230.122V233.386" stroke="white"/>
<path d="M226.5 228.323V232.83Z" fill="white"/>
<path d="M226.5 228.323V232.83" stroke="white"/>
<path d="M228.5 227.568V232.999Z" fill="white"/>
<path d="M228.5 227.568V232.999" stroke="white"/>
<path d="M230.5 226.45V231.632Z" fill="white"/>
<path d="M230.5 226.45V231.632" stroke="white"/>
<path d="M232.5 222.357V225.66Z" fill="white"/>
<path d="M232.5 222.357V225.66" stroke="white"/>
<path d="M234.5 220.477V224.074Z" fill="white"/>
<path d="M234.5 220.477V224.074" stroke="white"/>
<path d="M236.5 220.144V225.113Z" fill="white"/>
<path d="M236.5 220.144V225.113" stroke="white"/>
<path d="M239.5 219.219V226.876Z" fill="white"/>
<path d="M239.5 219.219V226.876" stroke="white"/>
<path d="M241.5 213.53V217.184Z" fill="white"/>
<path d="M241.5 213.53V217.184" stroke="white"/>
<path d="M243.5 211.72V219.435Z" fill="white"/>
<path d="M243.5 211.72V219.435" stroke="white"/>
<path d="M245.5 214.596V219.533Z" fill="white"/>
<path d="M245.5 214.596V219.533" stroke="white"/>
<path d="M247.5 209.658V214.429Z" fill="white"/>
<path d="M247.5 209.658V214.429" stroke="white"/>
<path d="M249.5 207.594V211.587Z" fill="white"/>
<path d="M249.5 207.594V211.587" stroke="white"/>
<path d="M251.5 208.902V213.488Z" fill="white"/>
<path d="M251.5 208.902V213.488" stroke="white"/>
<path d="M253.5 203.613V207.71Z" fill="white"/>
<path d="M253.5 203.613V207.71" stroke="white"/>
<path d="M255.5 201.622V208.131Z" fill="white"/>
<path d="M255.5 201.622V208.131" stroke="white"/>
<path d="M257.5 205.003V209.73Z" fill="white"/>
<path d="M257.5 205.003V209.73" stroke="white"/>
<path d="M259.5 204.658V207.751Z" fill="white"/>
<path d="M259.5 204.658V207.751" stroke="white"/>
<path d="M262.5 205.58V210.253Z" fill="white"/>
<path d="M262.5 205.58V210.253" stroke="white"/>
<path d="M264.5 205.519V215.162Z" fill="white"/>
<path d="M264.5 205.519V215.162" stroke="white"/>
<path d="M266.5 210.77V219.589Z" fill="white"/>
<path d="M266.5 210.77V219.589" stroke="white"/>
<path d="M268.5 218.358V223.293Z" fill="white"/>
<path d="M268.5 218.358V223.293" stroke="white"/>
<path d="M270.5 218.68V223.712Z" fill="white"/>
<path d="M270.5 218.68V223.712" stroke="white"/>
<path d="M272.5 212.706V219.568Z" fill="white"/>
<path d="M272.5 212.706V219.568" stroke="white"/>
<path d="M274.5 209.559V213.494Z" fill="white"/>
<path d="M274.5 209.559V213.494" stroke="white"/>
<path d="M276.5 208.937V212.351Z" fill="white"/>
<path d="M276.5 208.937V212.351" stroke="white"/>
<path d="M278.5 209.772V212.978Z" fill="white"/>
<path d="M278.5 209.772V212.978" stroke="white"/>
<path d="M280.5 211.215V215.334Z" fill="white"/>
<path d="M280.5 211.215V215.334" stroke="white"/>
<path d="M282.5 213.175V216.176Z" fill="white"/>
<path d="M282.5 213.175V216.176" stroke="white"/>
<path d="M284.5 208.808V214.997Z" fill="white"/>
<path d="M284.5 208.808V214.997" stroke="white"/>
<path d="M287.5 204.042V208.16Z" fill="white"/>
<path d="M287.5 204.042V208.16" stroke="white"/>
<path d="M289.5 203.578V207.881Z" fill="white"/>
<path d="M289.5 203.578V207.881" stroke="white"/>
<path d="M291.5 197.614V202.061Z" fill="white"/>
<path d="M291.5 197.614V202.061" stroke="white"/>
<path d="M293.5 190.315V197.681Z" fill="white"/>
<path d="M293.5 190.315V197.681" stroke="white"/>
<path d="M295.5 185.788V191.976Z" fill="white"/>
<path d="M295.5 185.788V191.976" stroke="white"/>
<path d="M297.5 183.619V188.337Z" fill="white"/>
<path d="M297.5 183.619V188.337" stroke="white"/>
<path d="M299.5 182.297V199.669Z" fill="white"/>
<path d="M299.5 182.297V199.669" stroke="white"/>
<path d="M301.5 195.751V208.194Z" fill="white"/>
<path d="M301.5 195.751V208.194" stroke="white"/>
<path d="M303.5 189.623V199.623Z" fill="white"/>
<path d="M303.5 189.623V199.623" stroke="white"/>
<path d="M305.5 185.793V191.114Z" fill="white"/>
<path d="M305.5 185.793V191.114" stroke="white"/>
<path d="M307.5 184.37V189.953Z" fill="white"/>
<path d="M307.5 184.37V189.953" stroke="white"/>
<path d="M310.5 184.095V198.121Z" fill="white"/>
<path d="M310.5 184.095V198.121" stroke="white"/>
<path d="M312.5 179.257V186.423Z" fill="white"/>
<path d="M312.5 179.257V186.423" stroke="white"/>
<path d="M314.5 174.809V181.784Z" fill="white"/>
<path d="M314.5 174.809V181.784" stroke="white"/>
<path d="M316.5 174.786V179.662Z" fill="white"/>
<path d="M316.5 174.786V179.662" stroke="white"/>
<path d="M318.5 174.006V181.597Z" fill="white"/>
<path d="M318.5 174.006V181.597" stroke="white"/>
<path d="M320.5 175.952V179.298Z" fill="white"/>
<path d="M320.5 175.952V179.298" stroke="white"/>
<path d="M322.5 173.351V176.841Z" fill="white"/>
<path d="M322.5 173.351V176.841" stroke="white"/>
<path d="M324.5 173.417V179.392Z" fill="white"/>
<path d="M324.5 173.417V179.392" stroke="white"/>
<path d="M326.5 180.282V189.035Z" fill="white"/>
<path d="M326.5 180.282V189.035" stroke="white"/>
<path d="M328.5 182.429V192.53Z" fill="white"/>
<path d="M328.5 182.429V192.53" stroke="white"/>
<path d="M330.5 183.217V191.893Z" fill="white"/>
<path d="M330.5 183.217V191.893" stroke="white"/>
<path d="M333.5 193.61V206.097Z" fill="white"/>
<path d="M333.5 193.61V206.097" stroke="white"/>
<path d="M335.5 201.363V215.977Z" fill="white"/>
<path d="M335.5 201.363V215.977" stroke="white"/>
<path d="M337.5 196.051V202.567Z" fill="white"/>
<path d="M337.5 196.051V202.567" stroke="white"/>
<path d="M339.5 194.701V205.768Z" fill="white"/>
<path d="M339.5 194.701V205.768" stroke="white"/>
<path d="M341.5 207.011V221.822Z" fill="white"/>
<path d="M341.5 207.011V221.822" stroke="white"/>
<path d="M343.5 214.451V234.164Z" fill="white"/>
<path d="M343.5 214.451V234.164" stroke="white"/>
<path d="M345.5 215.268V235.432Z" fill="white"/>
<path d="M345.5 215.268V235.432" stroke="white"/>
<path d="M347.5 213.538V226.309Z" fill="white"/>
<path d="M347.5 213.538V226.309" stroke="white"/>
<path d="M349.5 224.582V237.888Z" fill="white"/>
<path d="M349.5 224.582V237.888" stroke="white"/>
<path d="M351.5 231.734V245.62Z" fill="white"/>
<path d="M351.5 231.734V245.62" stroke="white"/>
<path d="M353.5 229.49V244.525Z" fill="white"/>
<path d="M353.5 229.49V244.525" stroke="white"/>
<path d="M355.5 239.973V247.681Z" fill="white"/>
<path d="M355.5 239.973V247.681" stroke="white"/>
<path d="M358.5 247.035V255.329Z" fill="white"/>
<path d="M358.5 247.035V255.329" stroke="white"/>
<path d="M360.5 240.071V257.568Z" fill="white"/>
<path d="M360.5 240.071V257.568" stroke="white"/>
<path d="M362.5 230.236V243.387Z" fill="white"/>
<path d="M362.5 230.236V243.387" stroke="white"/>
<path d="M364.5 226.924V234.93Z" fill="white"/>
<path d="M364.5 226.924V234.93" stroke="white"/>
<path d="M366.5 226.68V235.074Z" fill="white"/>
<path d="M366.5 226.68V235.074" stroke="white"/>
<path d="M368.5 232.334V240.408Z" fill="white"/>
<path d="M368.5 232.334V240.408" stroke="white"/>
<path d="M370.5 234.049V242.873Z" fill="white"/>
<path d="M370.5 234.049V242.873" stroke="white"/>
<path d="M372.5 228.591V237.006Z" fill="white"/>
<path d="M372.5 228.591V237.006" stroke="white"/>
<path d="M374.5 227.338V231.734Z" fill="white"/>
<path d="M374.5 227.338V231.734" stroke="white"/>
<path d="M376.5 226.382V232.403Z" fill="white"/>
<path d="M376.5 226.382V232.403" stroke="white"/>
<path d="M378.5 226.357V230.16Z" fill="white"/>
<path d="M378.5 226.357V230.16" stroke="white"/>
<path d="M381.5 222.145V227.445Z" fill="white"/>
<path d="M381.5 222.145V227.445" stroke="white"/>
<path d="M383.5 219.726V226.241Z" fill="white"/>
<path d="M383.5 219.726V226.241" stroke="white"/>
<path d="M385.5 225.946V241.38Z" fill="white"/>
<path d="M385.5 225.946V241.38" stroke="white"/>
<path d="M387.5 239.415V249.923Z" fill="white"/>
<path d="M387.5 239.415V249.923" stroke="white"/>
<path d="M389.5 238.037V246.437Z" fill="white"/>
<path d="M389.5 238.037V246.437" stroke="white"/>
<path d="M391.5 235.596V242.988Z" fill="white"/>
<path d="M391.5 235.596V242.988" stroke="white"/>
<path d="M393.5 240.956V246.059Z" fill="white"/>
<path d="M393.5 240.956V246.059" stroke="white"/>
<path d="M395.5 244.716V249.357Z" fill="white"/>
<path d="M395.5 244.716V249.357" stroke="white"/>
<path d="M397.5 239.672V246.94Z" fill="white"/>
<path d="M397.5 239.672V246.94" stroke="white"/>
<path d="M399.5 238.49V243.435Z" fill="white"/>
<path d="M399.5 238.49V243.435" stroke="white"/>
<path d="M401.5 241.84V246.312Z" fill="white"/>
<path d="M401.5 241.84V246.312" stroke="white"/>
<path d="M403.5 239.685V242.973Z" fill="white"/>
<path d="M403.5 239.685V242.973" stroke="white"/>
<path d="M406.5 230.964V238.794Z" fill="white"/>
<path d="M406.5 230.964V238.794" stroke="white"/>
<path d="M408.5 229.717V233.412Z" fill="white"/>
<path d="M408.5 229.717V233.412" stroke="white"/>
<path d="M410.5 231.237V234.347Z" fill="white"/>
<path d="M410.5 231.237V234.347" stroke="white"/>
<path d="M412.5 230.396V235.886Z" fill="white"/>
<path d="M412.5 230.396V235.886" stroke="white"/>
<path d="M414.5 228.302V231.141Z" fill="white"/>
<path d="M414.5 228.302V231.141" stroke="white"/>
<path d="M416.5 228.588V232.655Z" fill="white"/>
<path d="M416.5 228.588V232.655" stroke="white"/>
<path d="M418.5 228.038V240.309Z" fill="white"/>
<path d="M418.5 228.038V240.309" stroke="white"/>
<path d="M420.5 237.133V248.942Z" fill="white"/>
<path d="M420.5 237.133V248.942" stroke="white"/>
<path d="M422.5 238.226V244.031Z" fill="white"/>
<path d="M422.5 238.226V244.031" stroke="white"/>
<path d="M424.5 244.534V252.108Z" fill="white"/>
<path d="M424.5 244.534V252.108" stroke="white"/>
<path d="M426.5 256.876V266.046Z" fill="white"/>
<path d="M426.5 256.876V266.046" stroke="white"/>
<path d="M429.5 269.259V277.43Z" fill="white"/>
<path d="M429.5 269.259V277.43" stroke="white"/>
<path d="M431.5 270.705V281.967Z" fill="white"/>
<path d="M431.5 270.705V281.967" stroke="white"/>
<path d="M433.5 271.014V279.364Z" fill="white"/>
<path d="M433.5 271.014V279.364" stroke="white"/>
<path d="M435.5 263.994V270.196Z" fill="white"/>
<path d="M435.5 263.994V270.196" stroke="white"/>
<path d="M437.5 265.3V269.906Z" fill="white"/>
<path d="M437.5 265.3V269.906" stroke="white"/>
<path d="M439.5 266.585V272.492Z" fill="white"/>
<path d="M439.5 266.585V272.492" stroke="white"/>
<path d="M441.5 265.924V274.109Z" fill="white"/>
<path d="M441.5 265.924V274.109" stroke="white"/>
<path d="M443.5 264.846V271.906Z" fill="white"/>
<path d="M443.5 264.846V271.906" stroke="white"/>
<path d="M445.5 266.847V274.481Z" fill="white"/>
<path d="M445.5 266.847V274.481" stroke="white"/>
<path d="M447.5 263.019V267.267Z" fill="white"/>
<path d="M447.5 263.019V267.267" stroke="white"/>
<path d="M449.5 263.647V266.651Z" fill="white"/>
<path d="M449.5 263.647V266.651" stroke="white"/>
<path d="M452.5 264.558V267.372Z" fill="white"/>
<path d="M452.5 264.558V267.372" stroke="white"/>
<path d="M454.5 264.291V272.703Z" fill="white"/>
<path d="M454.5 264.291V272.703" stroke="white"/>
<path d="M456.5 271.187V275.75Z" fill="white"/>
<path d="M456.5 271.187V275.75" stroke="white"/>
<path d="M458.5 266.463V275.768Z" fill="white"/>
<path d="M458.5 266.463V275.768" stroke="white"/>
<path d="M460.5 265.447V271.019Z" fill="white"/>
<path d="M460.5 265.447V271.019" stroke="white"/>
<path d="M462.5 269.304V271.718Z" fill="white"/>
<path d="M462.5 269.304V271.718" stroke="white"/>
<path d="M464.5 267.539V272.16Z" fill="white"/>
<path d="M464.5 267.539V272.16" stroke="white"/>
<path d="M466.5 265.038V267.884Z" fill="white"/>
<path d="M466.5 265.038V267.884" stroke="white"/>
<path d="M468.5 267.345V270.112Z" fill="white"/>
<path d="M468.5 267.345V270.112" stroke="white"/>
<path d="M470.5 267.946V269.881Z" fill="white"/>
<path d="M470.5 267.946V269.881" stroke="white"/>
<path d="M472.5 268.002V272.06Z" fill="white"/>
<path d="M472.5 268.002V272.06" stroke="white"/>
<path d="M474.5 270.19V273.025Z" fill="white"/>
<path d="M474.5 270.19V273.025" stroke="white"/>
<path d="M477.5 271.813V274.012Z" fill="white"/>
<path d="M477.5 271.813V274.012" stroke="white"/>
<path d="M479.5 271.579V273.145Z" fill="white"/>
<path d="M479.5 271.579V273.145" stroke="white"/>
<path d="M481.5 266.96V268.787Z" fill="white"/>
<path d="M481.5 266.96V268.787" stroke="white"/>
<path d="M483.5 266.006V268.57Z" fill="white"/>
<path d="M483.5 266.006V268.57" stroke="white"/>
<path d="M485.5 260.127V266.207Z" fill="white"/>
<path d="M485.5 260.127V266.207" stroke="white"/>
<path d="M487.5 261.064V263.182Z" fill="white"/>
<path d="M487.5 261.064V263.182" stroke="white"/>
<path d="M489.5 260.658V263.042Z" fill="white"/>
<path d="M489.5 260.658V263.042" stroke="white"/>
<path d="M491.5 259.213V263.128Z" fill="white"/>
<path d="M491.5 259.213V263.128" stroke="white"/>
<path d="M493.5 256.659V259.374Z" fill="white"/>
<path d="M493.5 256.659V259.374" stroke="white"/>
<path d="M495.5 255.241V258.407Z" fill="white"/>
<path d="M495.5 255.241V258.407" stroke="white"/>
<path d="M497.5 255.142V258.3Z" fill="white"/>
<path d="M497.5 255.142V258.3" stroke="white"/>
<path d="M500.5 254.128V262.613Z" fill="white"/>
<path d="M500.5 254.128V262.613" stroke="white"/>
<path d="M502.5 257.557V261.794Z" fill="white"/>
<path d="M502.5 257.557V261.794" stroke="white"/>
<path d="M504.5 255.306V258.19Z" fill="white"/>
<path d="M504.5 255.306V258.19" stroke="white"/>
<path d="M506.5 253.649V256.24Z" fill="white"/>
<path d="M506.5 253.649V256.24" stroke="white"/>
<path d="M508.5 254.393V259.478Z" fill="white"/>
<path d="M508.5 254.393V259.478" stroke="white"/>
<path d="M510.5 254.478V257.863Z" fill="white"/>
<path d="M510.5 254.478V257.863" stroke="white"/>
<path d="M512.5 255.787V258.083Z" fill="white"/>
<path d="M512.5 255.787V258.083" stroke="white"/>
<path d="M514.5 255.531V258.826Z" fill="white"/>
<path d="M514.5 255.531V258.826" stroke="white"/>
<path d="M516.5 256.75V259.959Z" fill="white"/>
<path d="M516.5 256.75V259.959" stroke="white"/>
<path d="M518.5 258.841V260.898Z" fill="white"/>
<path d="M518.5 258.841V260.898" stroke="white"/>
<path d="M520.5 253.55V259.804Z" fill="white"/>
<path d="M520.5 253.55V259.804" stroke="white"/>
<path d="M522.5 247.669V253.742Z" fill="white"/>
<path d="M522.5 247.669V253.742" stroke="white"/>
<path d="M525.5 247.169V251.255Z" fill="white"/>
<path d="M525.5 247.169V251.255" stroke="white"/>
<path d="M527.5 243.558V247.537Z" fill="white"/>
<path d="M527.5 243.558V247.537" stroke="white"/>
<path d="M529.5 243.755V246.632Z" fill="white"/>
<path d="M529.5 243.755V246.632" stroke="white"/>
<path d="M531.5 244.439V246.738Z" fill="white"/>
<path d="M531.5 244.439V246.738" stroke="white"/>
<path d="M533.5 244.232V246.849Z" fill="white"/>
<path d="M533.5 244.232V246.849" stroke="white"/>
<path d="M535.5 245.48V248.642Z" fill="white"/>
<path d="M535.5 245.48V248.642" stroke="white"/>
<path d="M537.5 246.645V250.76Z" fill="white"/>
<path d="M537.5 246.645V250.76" stroke="white"/>
<path d="M539.5 243.347V247.09Z" fill="white"/>
<path d="M539.5 243.347V247.09" stroke="white"/>
<path d="M541.5 246.203V248.927Z" fill="white"/>
<path d="M541.5 246.203V248.927" stroke="white"/>
<path d="M543.5 246.15V248.818Z" fill="white"/>
<path d="M543.5 246.15V248.818" stroke="white"/>
<path d="M545.5 245.109V246.63Z" fill="white"/>
<path d="M545.5 245.109V246.63" stroke="white"/>
<path d="M548.5 244.445V247.053Z" fill="white"/>
<path d="M548.5 244.445V247.053" stroke="white"/>
<path d="M550.5 246.231V248.722Z" fill="white"/>
<path d="M550.5 246.231V248.722" stroke="white"/>
<path d="M552.5 244.743V246.649Z" fill="white"/>
<path d="M552.5 244.743V246.649" stroke="white"/>
<path d="M554.5 243.809V245.607Z" fill="white"/>
<path d="M554.5 243.809V245.607" stroke="white"/>
<path d="M556.5 245.978V255.753Z" fill="white"/>
<path d="M556.5 245.978V255.753" stroke="white"/>
<path d="M558.5 253.049V259.702Z" fill="white"/>
<path d="M558.5 253.049V259.702" stroke="white"/>
<path d="M560.5 252.441V255.515Z" fill="white"/>
<path d="M560.5 252.441V255.515" stroke="white"/>
<path d="M562.5 249.854V255.042Z" fill="white"/>
<path d="M562.5 249.854V255.042" stroke="white"/>
<path d="M564.5 247.386V250.863Z" fill="white"/>
<path d="M564.5 247.386V250.863" stroke="white"/>
<path d="M566.5 248.448V251.181Z" fill="white"/>
<path d="M566.5 248.448V251.181" stroke="white"/>
<path d="M568.5 249.616V251.358Z" fill="white"/>
<path d="M568.5 249.616V251.358" stroke="white"/>
<path d="M571.5 250.796V253.217Z" fill="white"/>
<path d="M571.5 250.796V253.217" stroke="white"/>
<path d="M573.5 251.867V253.772Z" fill="white"/>
<path d="M573.5 251.867V253.772" stroke="white"/>
<path d="M575.5 251.496V254.174Z" fill="white"/>
<path d="M575.5 251.496V254.174" stroke="white"/>
<path d="M577.5 253.741V255.824Z" fill="white"/>
<path d="M577.5 253.741V255.824" stroke="white"/>
<path d="M579.5 250.65V256.367Z" fill="white"/>
<path d="M579.5 250.65V256.367" stroke="white"/>
<path d="M581.5 250.268V251.814Z" fill="white"/>
<path d="M581.5 250.268V251.814" stroke="white"/>
<path d="M583.5 249.861V251.373Z" fill="white"/>
<path d="M583.5 249.861V251.373" stroke="white"/>
<path d="M585.5 247.774V250.097Z" fill="white"/>
<path d="M585.5 247.774V250.097" stroke="white"/>
<path d="M587.5 246.314V248.486Z" fill="white"/>
<path d="M587.5 246.314V248.486" stroke="white"/>
<path d="M589.5 244.617V248.598Z" fill="white"/>
<path d="M589.5 244.617V248.598" stroke="white"/>
<path d="M591.5 244.544V246.213Z" fill="white"/>
<path d="M591.5 244.544V246.213" stroke="white"/>
<path d="M593.5 243.053V245.459Z" fill="white"/>
<path d="M593.5 243.053V245.459" stroke="white"/>
<path d="M596.5 245.123V248.294Z" fill="white"/>
<path d="M596.5 245.123V248.294" stroke="white"/>
<path d="M598.5 245.354V246.919Z" fill="white"/>
<path d="M598.5 245.354V246.919" stroke="white"/>
<path d="M600.5 245.059V250.09Z" fill="white"/>
<path d="M600.5 245.059V250.09" stroke="white"/>
<path d="M602.5 248.672V250.942Z" fill="white"/>
<path d="M602.5 248.672V250.942" stroke="white"/>
<path d="M604.5 248.228V249.888Z" fill="white"/>
<path d="M604.5 248.228V249.888" stroke="white"/>
<path d="M606.5 247.905V249.877Z" fill="white"/>
<path d="M606.5 247.905V249.877" stroke="white"/>
<path d="M96 329.52C96 329.52 96.1498 298.856 98.0878 298.856C98.2376 298.856 99.1269 299.431 100.176 299.987C101.215 300.539 101.256 300.469 102.263 301.072C103.344 301.718 103.219 302.486 104.351 302.486C105.306 302.486 105.426 302.388 106.439 302.084C107.514 301.762 107.502 301.234 108.527 301.234C109.59 301.234 109.531 301.864 110.615 302.289C111.619 302.682 111.688 302.869 112.702 302.869C113.775 302.869 113.698 301.996 114.79 301.925C115.786 301.861 115.837 301.861 116.878 301.861C117.925 301.861 118.146 302.092 118.966 302.092C120.234 302.092 119.909 300.744 121.054 299.602C121.997 298.66 121.97 297.922 123.142 297.922C124.058 297.922 124.216 297.922 125.229 298.089C126.304 298.266 126.329 298.354 127.317 298.846C128.417 299.392 128.49 299.355 129.405 300.165C130.578 301.204 130.327 301.494 131.493 302.544C132.415 303.375 132.519 303.263 133.58 303.926C134.607 304.568 134.618 304.55 135.668 305.154C136.706 305.752 136.721 305.726 137.756 306.328C138.809 306.941 138.725 307.226 139.844 307.583C140.813 307.893 140.902 307.671 141.932 307.893C142.99 308.121 142.957 308.325 144.02 308.484C145.045 308.637 145.069 308.637 146.107 308.637C147.157 308.637 147.218 308.637 148.195 308.293C149.306 307.901 149.238 307.695 150.283 307.099C151.326 306.504 151.306 306.465 152.371 305.911C153.394 305.38 153.388 305.351 154.459 304.928C155.475 304.527 155.548 304.702 156.546 304.264C157.636 303.787 157.573 303.647 158.634 303.098C159.66 302.567 159.685 302.615 160.722 302.104C161.773 301.587 161.707 301.21 162.81 301.041C163.795 300.891 163.865 301.041 164.898 300.891C165.953 300.737 165.941 300.418 166.985 300.418C168.029 300.418 168.04 300.608 169.073 300.883C170.128 301.164 170.099 301.284 171.161 301.528C172.187 301.764 172.202 301.844 173.249 301.844C174.29 301.844 174.291 301.71 175.337 301.629C176.378 301.549 176.428 301.629 177.424 301.523C178.516 301.407 178.498 301.109 179.512 300.582C180.585 300.024 180.572 299.993 181.6 299.353C182.66 298.693 182.723 298.766 183.688 297.982C184.811 297.069 184.812 297.042 185.776 295.958C186.9 294.694 186.758 294.569 187.863 293.285C188.846 292.145 188.921 292.211 189.951 291.111C191.008 289.983 190.988 289.964 192.039 288.83C193.076 287.711 193.025 287.656 194.127 286.605C195.113 285.664 195.065 285.544 196.215 284.845C197.153 284.274 197.272 284.488 198.302 284.066C199.36 283.633 199.326 283.547 200.39 283.134C201.414 282.737 201.454 282.841 202.478 282.446C203.542 282.035 203.492 281.896 204.566 281.523C205.579 281.171 205.69 281.44 206.654 280.996C207.778 280.478 207.691 280.289 208.741 279.6C209.779 278.92 209.817 278.975 210.829 278.259C211.905 277.498 211.875 277.455 212.917 276.646C213.963 275.833 214.044 275.92 215.005 275.014C216.132 273.952 215.935 273.73 217.093 272.71C218.023 271.89 218.206 272.111 219.181 271.336C220.294 270.451 220.282 270.418 221.268 269.389C222.37 268.242 222.216 268.085 223.356 266.983C224.304 266.069 224.315 266.023 225.444 265.358C226.403 264.793 226.645 265.171 227.532 264.524C228.733 263.647 228.594 263.433 229.62 262.309C230.682 261.145 230.494 260.893 231.707 259.948C232.581 259.267 232.813 259.614 233.795 259.058C234.901 258.431 235.016 258.498 235.883 257.582C237.104 256.293 236.819 256.024 237.971 254.649C238.907 253.531 238.892 253.448 240.059 252.598C240.98 251.927 241.326 252.37 242.146 251.605C243.414 250.425 243.044 250.02 244.234 248.709C245.132 247.72 245.175 247.673 246.322 247.005C247.263 246.457 247.34 246.528 248.41 246.276C249.427 246.036 249.486 246.276 250.498 246.022C251.574 245.753 251.691 245.213 252.585 245.213C253.778 245.213 253.65 246.26 254.673 247.347C255.738 248.479 255.847 248.402 256.761 249.652C257.934 251.255 257.663 251.462 258.849 253.053C259.75 254.262 259.792 254.274 260.937 255.253C261.88 256.059 261.937 256.624 263.024 256.624C264.025 256.624 264.112 256.224 265.112 255.667C266.2 255.062 266.292 255.137 267.2 254.3C268.38 253.212 268.066 252.824 269.288 251.816C270.153 251.103 270.295 250.857 271.376 250.857C272.382 250.857 272.408 251.325 273.463 251.325C274.496 251.325 274.531 251.325 275.551 251.172C276.619 251.013 276.668 250.995 277.639 250.514C278.756 249.961 278.903 250.024 279.727 249.104C280.991 247.69 280.941 247.565 281.815 245.847C283.028 243.462 282.827 243.358 283.902 240.897C284.915 238.581 284.948 238.596 285.99 236.293C287.036 233.982 286.632 233.563 288.078 231.669C288.72 230.827 289.093 230.821 290.166 230.821C291.181 230.821 291.2 231.249 292.254 231.249C293.288 231.249 293.296 231.11 294.342 231.11C295.384 231.11 295.391 231.11 296.429 231.113C297.478 231.117 297.759 231.409 298.517 231.409C299.847 231.409 299.648 229.937 300.605 228.359C301.736 226.493 301.536 226.367 302.693 224.52C303.624 223.033 303.622 223.001 304.781 221.69C305.71 220.639 305.816 220.734 306.868 219.796C307.904 218.872 307.888 218.851 308.956 217.966C309.975 217.121 309.966 217.103 311.044 216.337C312.054 215.62 312.022 215 313.132 215C314.11 215 314.334 215.059 315.22 215.643C316.422 216.436 316.164 216.823 317.307 217.753C318.252 218.523 318.572 218.17 319.395 219.043C320.66 220.383 320.735 220.468 321.483 222.181C322.823 225.248 322.371 225.452 323.571 228.602C324.459 230.933 324.318 231.093 325.659 233.143C326.405 234.284 326.96 233.864 327.746 234.984C329.048 236.838 328.92 236.981 329.834 239.092C331.007 241.8 330.735 241.921 331.922 244.622C332.823 246.671 332.835 246.689 334.01 248.591C334.923 250.07 335.353 249.828 336.098 251.384C337.441 254.195 337.126 254.36 338.185 257.325C339.213 260.2 339.142 260.23 340.273 263.065C341.23 265.461 341.091 265.564 342.361 267.787C343.179 269.218 343.666 268.926 344.449 270.373C345.754 272.787 345.49 272.942 346.537 275.508C347.578 278.059 347.244 278.294 348.624 280.608C349.331 281.794 349.654 282.507 350.712 282.507C351.742 282.507 351.76 281.621 352.8 280.726C353.848 279.823 353.847 279.822 354.888 278.911C355.935 277.993 356.048 278.097 356.976 277.069C358.136 275.783 357.815 275.433 359.063 274.282C359.903 273.508 360.078 273.684 361.151 273.22C362.166 272.781 362.167 272.691 363.239 272.477C364.254 272.275 364.322 272.477 365.327 272.275C366.41 272.056 366.505 272.042 367.415 271.405C368.593 270.579 368.551 270.457 369.503 269.348C370.639 268.025 370.34 267.7 371.59 266.541C372.427 265.766 372.803 265.482 373.678 265.482C374.891 265.482 374.819 266.655 375.766 267.969C376.907 269.554 376.679 269.726 377.854 271.28C378.767 272.487 379.091 272.246 379.941 273.49C381.179 275.302 380.975 275.448 382.029 277.393C383.062 279.299 382.752 279.638 384.117 281.194C384.84 282.018 385.153 282.152 386.205 282.152C387.241 282.152 387.25 281.278 388.293 281.278C389.337 281.278 389.304 281.827 390.38 282.162C391.391 282.475 391.446 282.574 392.468 282.574C393.534 282.574 393.751 282.518 394.556 281.823C395.839 280.717 395.447 280.248 396.644 278.972C397.535 278.022 397.711 278.201 398.732 277.372C399.799 276.506 399.892 276.588 400.82 275.583C401.98 274.325 401.781 274.143 402.907 272.848C403.869 271.743 403.796 271.552 404.995 270.784C405.884 270.215 406.147 270.175 407.083 270.175C408.235 270.175 408.038 271.164 409.171 271.853C410.126 272.433 410.428 272.003 411.259 272.713C412.516 273.788 412.473 273.962 413.346 275.422C414.561 277.452 414.631 277.465 415.434 279.693C416.719 283.258 416.478 283.351 417.522 287.008C418.566 290.663 418.615 290.65 419.61 294.318C420.703 298.35 420.466 298.424 421.698 302.409C422.554 305.179 422.456 305.284 423.785 307.828C424.544 309.279 424.593 310.341 425.873 310.399C426.681 310.435 427.071 310.435 427.961 310.435C429.159 310.435 429.041 309.532 430.049 308.553C431.129 307.504 430.903 306.38 432.137 306.38C432.991 306.38 433.2 306.38 434.224 306.409C435.287 306.44 435.256 306.987 436.312 306.987C437.344 306.987 437.354 306.801 438.4 306.641C439.442 306.481 439.447 306.515 440.488 306.349C441.535 306.182 441.53 306.149 442.576 305.975C443.617 305.802 443.727 305.654 444.663 305.654C445.815 305.654 445.634 306.557 446.751 307.197C447.721 307.752 447.814 307.58 448.839 308.044C449.901 308.526 449.874 308.584 450.927 309.088C451.962 309.584 451.93 310.043 453.015 310.043C454.018 310.043 454.18 310.043 455.103 309.653C456.268 309.161 456.023 307.969 457.19 307.969C458.111 307.969 458.244 308.309 459.278 308.309C460.331 308.309 460.306 307.78 461.366 307.78C462.394 307.78 462.425 307.78 463.454 307.832C464.513 307.886 464.576 307.914 465.542 308.353C466.664 308.863 466.511 309.203 467.629 309.729C468.599 310.186 468.653 310.318 469.717 310.318C470.741 310.318 470.801 310.318 471.805 310.312C472.889 310.305 472.947 310.052 473.893 309.465C475.035 308.756 475.016 308.673 475.98 307.72C477.103 306.611 476.972 306.479 478.068 305.339C479.059 304.31 479.095 304.342 480.156 303.382C481.183 302.455 481.216 302.491 482.244 301.565C483.303 300.611 483.172 300.418 484.332 299.622C485.26 298.985 485.407 299.221 486.419 298.698C487.495 298.142 487.403 297.935 488.507 297.465C489.49 297.046 489.539 297.131 490.595 296.921C491.627 296.716 491.637 296.756 492.683 296.635C493.724 296.514 493.734 296.586 494.771 296.438C495.822 296.288 495.806 296.123 496.859 296.038C497.894 295.954 497.917 296.038 498.946 295.954C500.005 295.867 499.977 295.618 501.034 295.445C502.065 295.277 502.081 295.272 503.122 295.272C504.169 295.272 504.213 295.272 505.21 295.55C506.301 295.855 506.266 296.013 507.298 296.526C508.354 297.05 508.313 297.624 509.385 297.624C510.4 297.624 510.476 297.326 511.473 296.836C512.564 296.299 512.597 296.31 513.561 295.571C514.685 294.709 514.735 294.716 515.649 293.634C516.823 292.246 516.695 292.134 517.737 290.631C518.783 289.122 518.629 288.983 519.824 287.609C520.717 286.583 520.783 286.589 521.912 285.83C522.871 285.186 522.9 284.802 524 284.802C524.988 284.802 525.052 284.802 526.088 284.888C527.139 284.975 527.13 285.084 528.176 285.261C529.218 285.437 529.246 285.327 530.264 285.594C531.334 285.875 531.276 286.2 532.351 286.357C533.364 286.505 533.406 286.505 534.439 286.505C535.494 286.505 535.47 286.074 536.527 286.042C537.558 286.01 537.571 286.042 538.615 286.01C539.659 285.979 539.689 286.01 540.702 285.905C541.777 285.793 541.717 285.346 542.79 285.163C543.805 284.991 543.978 284.991 544.878 284.991C546.066 284.991 545.889 285.939 546.966 286.803C547.977 287.614 548.004 287.581 549.054 288.342C550.092 289.096 550.048 289.172 551.142 289.834C552.135 290.435 552.141 290.476 553.229 290.87C554.229 291.231 554.298 291.343 555.317 291.343C556.386 291.343 556.363 290.935 557.405 290.516C558.451 290.094 558.409 289.8 559.493 289.661C560.497 289.533 560.556 289.533 561.581 289.533C562.644 289.533 562.679 289.706 563.668 290.135C564.767 290.61 564.677 290.811 565.756 291.342C566.764 291.837 566.762 292.022 567.844 292.186C568.85 292.337 568.895 292.337 569.932 292.337C570.983 292.337 570.977 292.157 572.02 291.961C573.065 291.765 573.124 291.923 574.107 291.553C575.212 291.138 575.172 291.006 576.195 290.391C577.26 289.751 577.216 289.678 578.283 289.043C579.304 288.436 579.347 288.509 580.371 287.907C581.435 287.281 581.393 287.209 582.459 286.587C583.481 285.99 583.442 285.808 584.546 285.468C585.53 285.164 585.597 285.353 586.634 285.164C587.685 284.973 587.721 284.707 588.722 284.707C589.809 284.707 589.748 285.255 590.81 285.722C591.836 286.173 591.836 286.185 592.898 286.544C593.924 286.891 593.948 286.817 594.985 287.134C596.036 287.454 597.073 287.818 597.073 287.818" stroke="white" stroke-opacity="0.1" stroke-linejoin="bevel"/>
<path d="M545.938 96.3242H545.252V95C544.361 95 543.623 94.8164 543.037 94.4492V93.2715C543.623 93.752 544.361 94.0098 545.252 94.0449V90.9102C544.311 90.4688 543.699 90.0566 543.418 89.6738C543.137 89.291 542.996 88.8379 542.996 88.3145C542.996 87.7051 543.205 87.1758 543.623 86.7266C544.045 86.2734 544.588 86.002 545.252 85.9121V84.7695H545.938V85.8887C546.793 85.9199 547.375 86.041 547.684 86.252V87.4004C547.234 87.0566 546.652 86.8711 545.938 86.8438V90.0781C546.82 90.4805 547.428 90.8828 547.76 91.2852C548.092 91.6836 548.258 92.1328 548.258 92.6328C548.258 93.2617 548.049 93.7793 547.631 94.1855C547.213 94.5879 546.648 94.8418 545.938 94.9473V96.3242ZM545.252 86.8789C544.502 87.043 544.127 87.4785 544.127 88.1855C544.127 88.5254 544.207 88.8066 544.367 89.0293C544.527 89.252 544.822 89.4824 545.252 89.7207V86.8789ZM545.938 93.998C546.73 93.8262 547.127 93.4023 547.127 92.7266C547.127 92.1602 546.73 91.666 545.938 91.2441V93.998ZM552.383 95V87.2363C552.203 87.416 551.898 87.6172 551.469 87.8398C551.043 88.0625 550.648 88.2188 550.285 88.3086V87.1836C550.766 87.0508 551.279 86.8398 551.826 86.5508C552.373 86.2578 552.793 85.9824 553.086 85.7246H553.52V95H552.383ZM556.783 94.3965C556.783 94.1855 556.855 94.0078 557 93.8633C557.145 93.7188 557.324 93.6465 557.539 93.6465C557.758 93.6465 557.939 93.7207 558.084 93.8691C558.229 94.0137 558.301 94.1895 558.301 94.3965C558.301 94.5996 558.229 94.7754 558.084 94.9238C557.939 95.0684 557.756 95.1406 557.533 95.1406C557.318 95.1406 557.139 95.0684 556.994 94.9238C556.854 94.7754 556.783 94.5996 556.783 94.3965ZM563.979 88.3027C563.979 87.8145 563.824 87.4316 563.516 87.1543C563.207 86.873 562.787 86.7324 562.256 86.7324C561.881 86.7324 561.502 86.8281 561.119 87.0195C560.736 87.2109 560.379 87.4844 560.047 87.8398V86.7266C560.344 86.418 560.68 86.1816 561.055 86.0176C561.434 85.8535 561.877 85.7715 562.385 85.7715C563.205 85.7715 563.865 85.9922 564.365 86.4336C564.865 86.8711 565.115 87.4648 565.115 88.2148C565.115 88.8828 564.961 89.4609 564.652 89.9492C564.348 90.4375 563.824 90.9375 563.082 91.4492C562.324 91.9727 561.816 92.3477 561.559 92.5742C561.305 92.8008 561.127 93.0176 561.025 93.2246C560.924 93.4316 560.873 93.6836 560.873 93.9805H565.385V95H559.678V94.5488C559.678 94.0254 559.748 93.582 559.889 93.2188C560.033 92.8516 560.27 92.4961 560.598 92.1523C560.926 91.8047 561.438 91.3887 562.133 90.9043C562.844 90.4043 563.328 89.9668 563.586 89.5918C563.848 89.2129 563.979 88.7832 563.979 88.3027ZM572.199 92.1992C572.199 93.0859 571.904 93.8008 571.314 94.3438C570.729 94.8867 569.939 95.1582 568.947 95.1582C568.096 95.1582 567.461 95.0312 567.043 94.7773V93.6055C567.656 94.0039 568.281 94.2031 568.918 94.2031C569.551 94.2031 570.061 94.0293 570.447 93.6816C570.838 93.3301 571.033 92.8652 571.033 92.2871C571.033 91.709 570.83 91.2598 570.424 90.9395C570.021 90.6152 569.451 90.4531 568.713 90.4531C568.143 90.4531 567.629 90.4785 567.172 90.5293L567.506 85.9238H571.748V86.9316H568.473L568.285 89.5039L569.111 89.4688C570.072 89.4688 570.826 89.709 571.373 90.1895C571.924 90.666 572.199 91.3359 572.199 92.1992ZM573.576 88.2148C573.576 87.4727 573.773 86.8828 574.168 86.4453C574.566 86.0078 575.102 85.7891 575.773 85.7891C576.418 85.7891 576.92 85.9902 577.279 86.3926C577.643 86.7949 577.824 87.3555 577.824 88.0742C577.824 88.7891 577.625 89.3691 577.227 89.8145C576.828 90.2598 576.299 90.4824 575.639 90.4824C575.014 90.4824 574.514 90.2754 574.139 89.8613C573.764 89.4473 573.576 88.8984 573.576 88.2148ZM574.479 88.1562C574.479 88.6602 574.588 89.0488 574.807 89.3223C575.025 89.5957 575.324 89.7324 575.703 89.7324C576.094 89.7324 576.395 89.5918 576.605 89.3105C576.82 89.0254 576.928 88.625 576.928 88.1094C576.928 87.6055 576.822 87.2168 576.611 86.9434C576.404 86.666 576.111 86.5273 575.732 86.5273C575.346 86.5273 575.039 86.6719 574.812 86.9609C574.59 87.2461 574.479 87.6445 574.479 88.1562ZM581.779 85.9238L575.949 95.0586H574.971L580.801 85.9238H581.779ZM579.014 92.873C579.014 92.1309 579.211 91.5391 579.605 91.0977C580.004 90.6523 580.537 90.4297 581.205 90.4297C581.846 90.4297 582.348 90.6328 582.711 91.0391C583.074 91.4414 583.256 92.0098 583.256 92.7441C583.256 93.4551 583.055 94.0332 582.652 94.4785C582.25 94.9199 581.725 95.1406 581.076 95.1406C580.447 95.1406 579.945 94.9316 579.57 94.5137C579.199 94.0918 579.014 93.5449 579.014 92.873ZM579.91 92.8203C579.91 93.3125 580.02 93.6973 580.238 93.9746C580.457 94.248 580.756 94.3848 581.135 94.3848C581.525 94.3848 581.826 94.2422 582.037 93.957C582.252 93.6719 582.359 93.2734 582.359 92.7617C582.359 92.2539 582.252 91.8652 582.037 91.5957C581.826 91.3262 581.535 91.1914 581.164 91.1914C580.766 91.1914 580.457 91.3359 580.238 91.625C580.02 91.9102 579.91 92.3086 579.91 92.8203ZM591.658 91.8477H588.207V90.9629H591.658V91.8477ZM599.973 96.3242H599.287V95C598.396 95 597.658 94.8164 597.072 94.4492V93.2715C597.658 93.752 598.396 94.0098 599.287 94.0449V90.9102C598.346 90.4688 597.734 90.0566 597.453 89.6738C597.172 89.291 597.031 88.8379 597.031 88.3145C597.031 87.7051 597.24 87.1758 597.658 86.7266C598.08 86.2734 598.623 86.002 599.287 85.9121V84.7695H599.973V85.8887C600.828 85.9199 601.41 86.041 601.719 86.252V87.4004C601.27 87.0566 600.688 86.8711 599.973 86.8438V90.0781C600.855 90.4805 601.463 90.8828 601.795 91.2852C602.127 91.6836 602.293 92.1328 602.293 92.6328C602.293 93.2617 602.084 93.7793 601.666 94.1855C601.248 94.5879 600.684 94.8418 599.973 94.9473V96.3242ZM599.287 86.8789C598.537 87.043 598.162 87.4785 598.162 88.1855C598.162 88.5254 598.242 88.8066 598.402 89.0293C598.562 89.252 598.857 89.4824 599.287 89.7207V86.8789ZM599.973 93.998C600.766 93.8262 601.162 93.4023 601.162 92.7266C601.162 92.1602 600.766 91.666 599.973 91.2441V93.998ZM606.418 95V87.2363C606.238 87.416 605.934 87.6172 605.504 87.8398C605.078 88.0625 604.684 88.2188 604.32 88.3086V87.1836C604.801 87.0508 605.314 86.8398 605.861 86.5508C606.408 86.2578 606.828 85.9824 607.121 85.7246H607.555V95H606.418ZM610.818 94.3965C610.818 94.1855 610.891 94.0078 611.035 93.8633C611.18 93.7188 611.359 93.6465 611.574 93.6465C611.793 93.6465 611.975 93.7207 612.119 93.8691C612.264 94.0137 612.336 94.1895 612.336 94.3965C612.336 94.5996 612.264 94.7754 612.119 94.9238C611.975 95.0684 611.791 95.1406 611.568 95.1406C611.354 95.1406 611.174 95.0684 611.029 94.9238C610.889 94.7754 610.818 94.5996 610.818 94.3965ZM619.432 86.6328C618.479 88.2969 617.729 89.8379 617.182 91.2559C616.639 92.6699 616.303 93.918 616.174 95H614.979C615.123 93.9336 615.465 92.7168 616.004 91.3496C616.543 89.9824 617.264 88.5117 618.166 86.9375H613.666V85.9238H619.432V86.6328ZM620.896 93.4824C621.518 93.9629 622.219 94.2031 623 94.2031C623.625 94.2031 624.119 94.0508 624.482 93.7461C624.85 93.4375 625.033 93.0254 625.033 92.5098C625.033 91.3613 624.211 90.7871 622.566 90.7871H621.811V89.8379H622.531C623.988 89.8379 624.717 89.2988 624.717 88.2207C624.717 87.2246 624.16 86.7266 623.047 86.7266C622.41 86.7266 621.811 86.9414 621.248 87.3711V86.2871C621.842 85.9434 622.535 85.7715 623.328 85.7715C624.102 85.7715 624.723 85.9746 625.191 86.3809C625.66 86.7832 625.895 87.3066 625.895 87.9512C625.895 89.1387 625.289 89.9023 624.078 90.2422V90.2656C624.734 90.3359 625.252 90.5684 625.631 90.9629C626.014 91.3535 626.205 91.8418 626.205 92.4277C626.205 93.2441 625.91 93.9023 625.32 94.4023C624.734 94.9023 623.953 95.1523 622.977 95.1523C622.117 95.1523 621.424 94.9922 620.896 94.6719V93.4824Z" fill="#DDF446"/>
</g>
<path d="M584.938 76.3242H584.252V75C583.361 75 582.623 74.8164 582.037 74.4492V73.2715C582.623 73.752 583.361 74.0098 584.252 74.0449V70.9102C583.311 70.4688 582.699 70.0566 582.418 69.6738C582.137 69.291 581.996 68.8379 581.996 68.3145C581.996 67.7051 582.205 67.1758 582.623 66.7266C583.045 66.2734 583.588 66.002 584.252 65.9121V64.7695H584.938V65.8887C585.793 65.9199 586.375 66.041 586.684 66.252V67.4004C586.234 67.0566 585.652 66.8711 584.938 66.8438V70.0781C585.82 70.4805 586.428 70.8828 586.76 71.2852C587.092 71.6836 587.258 72.1328 587.258 72.6328C587.258 73.2617 587.049 73.7793 586.631 74.1855C586.213 74.5879 585.648 74.8418 584.938 74.9473V76.3242ZM584.252 66.8789C583.502 67.043 583.127 67.4785 583.127 68.1855C583.127 68.5254 583.207 68.8066 583.367 69.0293C583.527 69.252 583.822 69.4824 584.252 69.7207V66.8789ZM584.938 73.998C585.73 73.8262 586.127 73.4023 586.127 72.7266C586.127 72.1602 585.73 71.666 584.938 71.2441V73.998ZM591.383 75V67.2363C591.203 67.416 590.898 67.6172 590.469 67.8398C590.043 68.0625 589.648 68.2188 589.285 68.3086V67.1836C589.766 67.0508 590.279 66.8398 590.826 66.5508C591.373 66.2578 591.793 65.9824 592.086 65.7246H592.52V75H591.383ZM595.924 73.4824C596.545 73.9629 597.246 74.2031 598.027 74.2031C598.652 74.2031 599.146 74.0508 599.51 73.7461C599.877 73.4375 600.061 73.0254 600.061 72.5098C600.061 71.3613 599.238 70.7871 597.594 70.7871H596.838V69.8379H597.559C599.016 69.8379 599.744 69.2988 599.744 68.2207C599.744 67.2246 599.188 66.7266 598.074 66.7266C597.438 66.7266 596.838 66.9414 596.275 67.3711V66.2871C596.869 65.9434 597.562 65.7715 598.355 65.7715C599.129 65.7715 599.75 65.9746 600.219 66.3809C600.688 66.7832 600.922 67.3066 600.922 67.9512C600.922 69.1387 600.316 69.9023 599.105 70.2422V70.2656C599.762 70.3359 600.279 70.5684 600.658 70.9629C601.041 71.3535 601.232 71.8418 601.232 72.4277C601.232 73.2441 600.938 73.9023 600.348 74.4023C599.762 74.9023 598.98 75.1523 598.004 75.1523C597.145 75.1523 596.451 74.9922 595.924 74.6719V73.4824ZM608.305 72.1992C608.305 73.0859 608.01 73.8008 607.42 74.3438C606.834 74.8867 606.045 75.1582 605.053 75.1582C604.201 75.1582 603.566 75.0312 603.148 74.7773V73.6055C603.762 74.0039 604.387 74.2031 605.023 74.2031C605.656 74.2031 606.166 74.0293 606.553 73.6816C606.943 73.3301 607.139 72.8652 607.139 72.2871C607.139 71.709 606.936 71.2598 606.529 70.9395C606.127 70.6152 605.557 70.4531 604.818 70.4531C604.248 70.4531 603.734 70.4785 603.277 70.5293L603.611 65.9238H607.854V66.9316H604.578L604.391 69.5039L605.217 69.4688C606.178 69.4688 606.932 69.709 607.479 70.1895C608.029 70.666 608.305 71.3359 608.305 72.1992ZM609.869 74.3965C609.869 74.1855 609.941 74.0078 610.086 73.8633C610.23 73.7188 610.41 73.6465 610.625 73.6465C610.844 73.6465 611.025 73.7207 611.17 73.8691C611.314 74.0137 611.387 74.1895 611.387 74.3965C611.387 74.5996 611.314 74.7754 611.17 74.9238C611.025 75.0684 610.842 75.1406 610.619 75.1406C610.404 75.1406 610.225 75.0684 610.08 74.9238C609.939 74.7754 609.869 74.5996 609.869 74.3965ZM618.482 66.6328C617.529 68.2969 616.779 69.8379 616.232 71.2559C615.689 72.6699 615.354 73.918 615.225 75H614.029C614.174 73.9336 614.516 72.7168 615.055 71.3496C615.594 69.9824 616.314 68.5117 617.217 66.9375H612.717V65.9238H618.482V66.6328ZM625.074 67.0898C624.602 66.8477 624.107 66.7266 623.592 66.7266C622.807 66.7266 622.176 67.0684 621.699 67.752C621.223 68.4355 620.98 69.3691 620.973 70.5527H621.002C621.432 69.7207 622.117 69.3047 623.059 69.3047C623.844 69.3047 624.471 69.5605 624.939 70.0723C625.408 70.584 625.643 71.2637 625.643 72.1113C625.643 72.998 625.371 73.7266 624.828 74.2969C624.289 74.8672 623.6 75.1523 622.76 75.1523C621.838 75.1523 621.113 74.793 620.586 74.0742C620.062 73.3516 619.801 72.3281 619.801 71.0039C619.801 69.4023 620.145 68.1309 620.832 67.1895C621.523 66.2441 622.432 65.7715 623.557 65.7715C624.201 65.7715 624.707 65.8594 625.074 66.0352V67.0898ZM621.043 72.0293C621.043 72.627 621.201 73.1387 621.518 73.5645C621.838 73.9902 622.262 74.2031 622.789 74.2031C623.289 74.2031 623.695 74.0195 624.008 73.6523C624.32 73.2852 624.477 72.8125 624.477 72.2344C624.477 71.6094 624.328 71.123 624.031 70.7754C623.738 70.4277 623.32 70.2539 622.777 70.2539C622.262 70.2539 621.844 70.4297 621.523 70.7812C621.203 71.1328 621.043 71.5488 621.043 72.0293Z" fill="white"/>
</g>
<defs>
<filter id="filter0_d_72_617" x="0" y="0" width="672" height="435" filterUnits="userSpaceOnUse" color-interpolation-filters="sRGB">
<feFlood flood-opacity="0" result="BackgroundImageFix"/>
<feColorMatrix in="SourceAlpha" type="matrix" values="0 0 0 0 0 0 0 0 0 0 0 0 0 0 0 0 0 0 127 0" result="hardAlpha"/>
<feOffset dx="-30" dy="-30"/>
<feComposite in2="hardAlpha" operator="out"/>
<feColorMatrix type="matrix" values="0 0 0 0 0.866667 0 0 0 0 0.956863 0 0 0 0 0.27451 0 0 0 1 0"/>
<feBlend mode="normal" in2="BackgroundImageFix" result="effect1_dropShadow_72_617"/>
<feBlend mode="normal" in="SourceGraphic" in2="effect1_dropShadow_72_617" result="shape"/>
</filter>
<clipPath id="clip0_72_617">
<rect width="642" height="315" fill="white" transform="translate(30 75)"/>
</clipPath>
</defs>
</svg>
